<svg width="16" height="16" viewBox="0 0 16 16" fill="none" xmlns="http://www.w3.org/2000/svg">
<path d="M13.6121 6.22554L10.0148 5.67806L8.40666 2.2641C8.36274 2.17063 8.29048 2.09496 8.20122 2.04897C7.97736 1.93324 7.70532 2.02968 7.59339 2.2641L5.98528 5.67806L2.38791 6.22554C2.28873 6.24038 2.19805 6.28934 2.12863 6.36352C2.0447 6.45386 1.99845 6.5754 2.00004 6.70142C2.00163 6.82745 2.05094 6.94766 2.13713 7.03563L4.73987 9.69291L4.12496 13.4452C4.11054 13.5324 4.11976 13.6222 4.15159 13.7043C4.18341 13.7864 4.23655 13.8575 4.305 13.9095C4.37344 13.9616 4.45444 13.9925 4.53882 13.9988C4.6232 14.0051 4.70757 13.9865 4.78238 13.9452L8.00003 12.1736L11.2177 13.9452C11.3055 13.9941 11.4075 14.0104 11.5053 13.9926C11.7518 13.9481 11.9176 13.7033 11.8751 13.4452L11.2602 9.69291L13.8629 7.03563C13.9338 6.96293 13.9805 6.86798 13.9947 6.76412C14.033 6.50447 13.8601 6.26412 13.6121 6.22554Z" fill="#1B1C21"/>
</svg>
