<svg width="72" height="72" viewBox="0 0 72 72" fill="none" xmlns="http://www.w3.org/2000/svg">
<path d="M34.8272 71.4883C15.5095 70.9988 9.05564e-06 55.1856 1.07548e-05 35.75L0.0117296 34.8272C0.501218 15.5095 16.3144 9.05564e-06 35.75 1.07548e-05L36.6729 0.0117296C55.6839 0.493451 71.0066 15.8162 71.4883 34.8272L71.5 35.75C71.5 55.4942 55.4942 71.5 35.75 71.5L34.8272 71.4883ZM35.75 68.5C53.8373 68.5 68.5 53.8373 68.5 35.75C68.5 17.6627 53.8373 3.00001 35.75 3.00001C17.6627 3.00001 3.00001 17.6627 3.00001 35.75C3.00001 53.8373 17.6627 68.5 35.75 68.5Z" fill="#1AC073"/>
<path d="M23.9594 38.956C22.5949 37.7609 22.5949 35.6375 23.9594 34.4424L37.5966 22.4983C39.5361 20.7997 42.5732 22.177 42.5732 24.7551L42.5732 48.6433C42.5732 51.2215 39.5361 52.5987 37.5966 50.9001L23.9594 38.956Z" fill="#1AC073"/>
</svg>
