<svg width="88" height="22" viewBox="0 0 88 22" fill="none" xmlns="http://www.w3.org/2000/svg">
<path d="M7.16795 0.319925H11.648V17.1199C11.648 19.9359 10.3253 21.3439 7.67995 21.3439H3.96795C1.32262 21.3439 -5.07534e-05 19.9359 -5.07534e-05 17.1199V14.5279H4.25595V17.6319C4.25595 17.8026 4.30928 17.9519 4.41595 18.0799C4.54395 18.2079 4.69328 18.2719 4.86395 18.2719H6.55995C6.73062 18.2719 6.86928 18.2079 6.97595 18.0799C7.10395 17.9519 7.16795 17.8026 7.16795 17.6319V0.319925ZM12.7424 4.12793V0.319925H23.9424V4.12793H20.5824V21.0239H16.1024V4.12793H12.7424ZM31.6529 12.7999V9.50393H37.573V17.1199C37.573 19.9359 36.2503 21.3439 33.6049 21.3439H29.5729C26.9276 21.3439 25.6049 19.9359 25.6049 17.1199V4.22392C25.6049 1.40793 26.9276 -7.43866e-05 29.5729 -7.43866e-05H33.6049C36.2503 -7.43866e-05 37.573 1.40793 37.573 4.22392V6.17593H33.3169V3.67992C33.3169 3.50926 33.253 3.35992 33.125 3.23192C33.0183 3.10392 32.8796 3.03992 32.709 3.03992H30.6929C30.5223 3.03992 30.3729 3.10392 30.2449 3.23192C30.1383 3.35992 30.0849 3.50926 30.0849 3.67992V17.6319C30.0849 17.8026 30.1383 17.9519 30.2449 18.0799C30.3729 18.2079 30.5223 18.2719 30.6929 18.2719H32.709C32.8796 18.2719 33.0183 18.2079 33.125 18.0799C33.253 17.9519 33.3169 17.8026 33.3169 17.6319V12.7999H31.6529ZM47.0824 5.08792C49.7278 5.08792 51.0504 6.49592 51.0504 9.31192V14.3679H43.7864V17.6319C43.7864 17.8026 43.8398 17.9519 43.9464 18.0799C44.0744 18.2079 44.2238 18.2719 44.3944 18.2719H46.1544C46.3251 18.2719 46.4638 18.2079 46.5704 18.0799C46.6984 17.9519 46.7624 17.8026 46.7624 17.6319V15.9039H51.0504V17.1199C51.0504 19.9359 49.7278 21.3439 47.0824 21.3439H43.4664C40.8211 21.3439 39.4984 19.9359 39.4984 17.1199V9.31192C39.4984 6.49592 40.8211 5.08792 43.4664 5.08792H47.0824ZM43.7864 11.5519H46.7624V8.67193C46.7624 8.50126 46.6984 8.35193 46.5704 8.22393C46.4638 8.09593 46.3251 8.03193 46.1544 8.03193H44.3944C44.2238 8.03193 44.0744 8.09593 43.9464 8.22393C43.8398 8.35193 43.7864 8.50126 43.7864 8.67193V11.5519ZM60.9567 5.40792H64.5727V21.0239H60.9567V19.8719C60.2954 20.8533 59.1967 21.3439 57.6607 21.3439H56.9887C54.3434 21.3439 53.0207 19.9359 53.0207 17.1199V9.31192C53.0207 6.49592 54.3434 5.08792 56.9887 5.08792H57.6607C59.1967 5.08792 60.2954 5.57859 60.9567 6.55993V5.40792ZM60.2847 17.6319V8.79992C60.2847 8.62926 60.2207 8.47993 60.0927 8.35192C59.986 8.22393 59.8474 8.15993 59.6767 8.15993H57.9167C57.746 8.15993 57.5967 8.22393 57.4687 8.35192C57.362 8.47993 57.3087 8.62926 57.3087 8.79992V17.6319C57.3087 17.8026 57.362 17.9519 57.4687 18.0799C57.5967 18.2079 57.746 18.2719 57.9167 18.2719H59.6767C59.8474 18.2719 59.986 18.2079 60.0927 18.0799C60.2207 17.9519 60.2847 17.8026 60.2847 17.6319ZM72.8015 18.5599H74.0815V21.3439H71.0735C68.4281 21.3439 67.1055 19.9359 67.1055 17.1199V2.01592H71.3935V5.40792H74.0815V8.51192H71.3935V17.0239C71.3935 17.6213 71.5108 18.0266 71.7455 18.2399C71.9801 18.4533 72.3321 18.5599 72.8015 18.5599ZM83.3002 11.2319C85.9455 11.2319 87.2682 12.6399 87.2682 15.4559V17.1199C87.2682 19.9359 85.9455 21.3439 83.3002 21.3439H79.7482C77.1029 21.3439 75.7802 19.9359 75.7802 17.1199V16.1279H79.7482V17.5359C79.7482 17.7066 79.8015 17.8559 79.9082 17.9839C80.0362 18.1119 80.1855 18.1759 80.3562 18.1759H82.9802C83.1509 18.1759 83.2895 18.1119 83.3962 17.9839C83.5242 17.8559 83.5882 17.7066 83.5882 17.5359V15.6159C83.5882 15.4453 83.5242 15.2959 83.3962 15.1679C83.2895 15.0399 83.1509 14.9759 82.9802 14.9759H79.6842C77.0389 14.9759 75.7162 13.5679 75.7162 10.7519V9.31192C75.7162 6.49592 77.0389 5.08792 79.6842 5.08792H83.0442C85.6895 5.08792 87.0122 6.49592 87.0122 9.31192V9.88793H83.0442V8.89593C83.0442 8.72526 82.9802 8.57593 82.8522 8.44793C82.7455 8.31993 82.6069 8.25593 82.4362 8.25593H80.0042C79.8335 8.25593 79.6842 8.31993 79.5562 8.44793C79.4495 8.57593 79.3962 8.72526 79.3962 8.89593V10.5919C79.3962 10.7626 79.4495 10.9119 79.5562 11.0399C79.6842 11.1679 79.8335 11.2319 80.0042 11.2319H83.3002Z" fill="white"/>
</svg>
